<svg width="143" height="88" viewBox="0 0 143 88" xmlns="http://www.w3.org/2000/svg">
    <path d="m71.157 0 38.226 21.973.008 5.537h-3.494l-.005-3.522L71.16 4.022c-1.622.939-33.08 19.073-34.704 20.007 0 1.214.003 3.481.003 3.481h-3.494l-.003-5.488L70.285.505 71.157 0M36.482 60.484l.002 3.523c1.622.938 33.108 19.037 34.732 19.968l34.704-20.01c0-1.21-.003-3.478-.003-3.478l3.492-.003.002 5.494L71.22 88 32.99 66.022l-.005-5.535 3.497-.003M0 52.51c1.259.678 3.2 1.188 5.384 1.188 4.768 0 7.188-2.275 7.188-5.402-.031-2.413-1.328-4.01-4.497-5.096-2.044-.681-2.69-1.122-2.69-1.902 0-.817.713-1.33 1.974-1.33 1.396 0 2.862.546 3.609.921l.888-3.532c-1.024-.51-2.727-.987-4.669-.987-4.12 0-6.778 2.344-6.778 5.473-.035 1.936 1.295 3.803 4.77 4.958 1.909.613 2.42 1.054 2.42 1.9 0 .853-.65 1.36-2.215 1.36-1.534 0-3.51-.642-4.463-1.222L0 52.508m21.534-20.281v4.516h3.714v3.806h-3.714v6.014c0 2.005.511 2.92 2.044 2.92.713 0 1.056-.033 1.534-.135l.034 3.91c-.648.238-1.909.442-3.34.442-1.668 0-3.068-.58-3.92-1.428-.95-.987-1.432-2.582-1.432-4.928v-6.795h-2.212v-3.806h2.212v-3.127l5.08-1.39m20.58 17.122c0 1.561.069 3.092.273 4.01H37.72l-.307-1.665h-.105c-1.087 1.328-2.79 2.038-4.768 2.038-3.373 0-5.384-2.446-5.384-5.097 0-4.313 3.885-6.353 9.779-6.353v-.204c0-.88-.479-2.14-3.034-2.14-1.7 0-3.51.579-4.599 1.224l-.954-3.295c1.158-.648 3.44-1.497 6.474-1.497 5.555 0 7.292 3.262 7.292 7.17v5.81zm-5.008-3.838c-2.727 0-4.837.645-4.837 2.614 0 1.324.885 1.972 2.041 1.972 1.261 0 2.35-.847 2.693-1.903a3.65 3.65 0 0 0 .103-.883v-1.8zm21.636 7.404c-.92.441-2.657.786-4.635.786-5.381 0-8.827-3.298-8.827-8.496 0-4.826 3.343-8.8 9.541-8.8 1.366 0 2.864.235 3.954.643l-.818 3.841c-.612-.273-1.533-.51-2.896-.51-2.726 0-4.494 1.938-4.463 4.622 0 3.058 2.046 4.652 4.566 4.652 1.228 0 2.181-.201 2.967-.54l.61 3.802m2.863.444h5.18v-9.85c0-.378.033-.822.171-1.122.373-.952 1.223-1.837 2.591-1.837 1.939 0 2.688 1.495 2.688 3.67v9.139h5.18v-9.682c0-5.03-2.522-7.305-5.827-7.305-.954 0-1.908.237-2.69.645a5.627 5.627 0 0 0-2.047 1.732h-.066v-9.547h-5.18v24.157m23.954-6.66c.168 2.143 2.281 3.16 4.7 3.16 1.773 0 3.203-.24 4.605-.713l.678 3.501c-1.704.71-3.78 1.051-6.032 1.051-5.655 0-8.895-3.26-8.895-8.457 0-4.216 2.66-8.871 8.42-8.871 5.381 0 7.425 4.177 7.425 8.292 0 .88-.102 1.663-.169 2.038H85.558zm6.097-3.534c0-1.256-.545-3.362-2.895-3.362-2.215 0-3.103 2.004-3.236 3.362h6.131zm7.904 10.191h5.041V43.71c0-.444.033-.918.205-1.326.307-.816 1.092-1.837 2.422-1.837 1.668 0 2.417 1.429 2.417 3.502v9.307h5.042V43.64c0-.408.068-.915.171-1.29.376-.985 1.194-1.804 2.42-1.804 1.67 0 2.453 1.396 2.453 3.808v9.001h5.043v-9.783c0-4.959-2.42-7.203-5.621-7.203a6.385 6.385 0 0 0-3.17.813c-.818.477-1.534 1.156-2.181 2.04h-.07c-.713-1.731-2.386-2.853-4.563-2.853-2.828 0-4.33 1.56-5.044 2.65h-.102l-.204-2.278H99.42c.069 1.495.138 16.614.138 16.614m43.17-4.007c0 1.561.07 3.092.271 4.01h-4.665l-.307-1.665h-.105c-1.087 1.328-2.793 2.038-4.768 2.038-3.373 0-5.384-2.446-5.384-5.097 0-4.313 3.883-6.353 9.778-6.353v-.204c0-.88-.475-2.14-3.033-2.14-1.701 0-3.51.579-4.599 1.224l-.954-3.295c1.159-.648 3.443-1.497 6.474-1.497 5.555 0 7.292 3.262 7.292 7.17v5.81zm-5.01-3.838c-2.725 0-4.835.645-4.835 2.614 0 1.324.885 1.972 2.044 1.972 1.26 0 2.348-.847 2.69-1.903.07-.273.1-.58.1-.883v-1.8z" fill="#007DB8" fill-rule="nonzero"/>
</svg>
