<svg width="24" height="24" viewBox="0 0 24 24" xmlns="http://www.w3.org/2000/svg">
    <g fill="none" fill-rule="evenodd">
        <circle fill="#EEF0F4" cx="12" cy="12" r="12"/>
        <path d="m11.952 6 5.346 3.073.001.775h-.488v-.493l-4.859-2.792L7.1 9.36v.487H6.61V9.08l5.22-3.01.122-.07m-4.85 8.46v.492l4.858 2.793 4.854-2.799v-.486h.488v.768l-5.341 3.08-5.347-3.074v-.774h.488M2 13.343c.176.095.448.166.753.166.667 0 1.005-.318 1.005-.755-.004-.338-.185-.561-.629-.713-.285-.095-.376-.157-.376-.266 0-.114.1-.186.276-.186.196 0 .4.076.505.129l.124-.494a1.535 1.535 0 0 0-.653-.138c-.576 0-.948.327-.948.765-.005.27.181.532.667.694.267.085.339.147.339.265 0 .12-.091.19-.31.19-.215 0-.49-.09-.624-.17L2 13.344m3.012-2.837v.632h.52v.532h-.52v.841c0 .28.071.409.286.409.1 0 .147-.005.214-.02l.005.548c-.09.033-.267.061-.467.061a.776.776 0 0 1-.548-.2c-.133-.137-.2-.36-.2-.689v-.95h-.31v-.532h.31v-.437l.71-.195m2.878 2.395c0 .218.01.432.038.56h-.653l-.042-.232h-.015c-.152.186-.39.285-.667.285-.472 0-.753-.342-.753-.713 0-.603.543-.889 1.368-.889v-.028c0-.123-.067-.3-.425-.3-.237 0-.49.082-.643.172l-.133-.461c.162-.09.48-.21.905-.21.777 0 1.02.457 1.02 1.003v.813zm-.7-.537c-.382 0-.677.09-.677.366 0 .185.124.275.286.275a.4.4 0 0 0 .376-.266.51.51 0 0 0 .015-.123v-.252zm3.026 1.036c-.13.061-.372.11-.649.11-.752 0-1.234-.462-1.234-1.189 0-.675.467-1.23 1.334-1.23.191 0 .4.032.553.09l-.114.537a.99.99 0 0 0-.405-.072c-.381 0-.629.271-.624.647 0 .427.286.65.638.65.172 0 .305-.028.415-.075l.086.532m.4.062h.724v-1.378c0-.053.005-.115.024-.157a.382.382 0 0 1 .363-.257c.27 0 .376.21.376.514v1.278h.724v-1.354c0-.704-.353-1.022-.815-1.022a.829.829 0 0 0-.662.332h-.01v-1.335h-.724v3.379m3.35-.932c.024.3.32.442.658.442.248 0 .447-.033.644-.1l.094.49a2.22 2.22 0 0 1-.843.147c-.791 0-1.244-.456-1.244-1.183 0-.59.372-1.24 1.177-1.24.753 0 1.039.584 1.039 1.16 0 .122-.015.232-.024.284h-1.5zm.853-.494c0-.176-.076-.47-.405-.47-.31 0-.434.28-.453.47h.858zm1.105 1.425h.705v-1.349c0-.062.005-.128.029-.185.043-.114.153-.257.339-.257.233 0 .338.2.338.49v1.301h.705v-1.358c0-.058.01-.129.024-.181.052-.138.167-.252.338-.252.234 0 .343.195.343.532v1.26h.706v-1.37c0-.693-.339-1.006-.786-1.006a.893.893 0 0 0-.444.113 1.012 1.012 0 0 0-.305.286h-.01c-.1-.243-.333-.4-.638-.4a.806.806 0 0 0-.705.371h-.014l-.029-.318h-.615c.01.209.02 2.323.02 2.323m6.037-.56c0 .218.01.432.038.56h-.652l-.043-.232h-.015c-.152.186-.39.285-.667.285-.472 0-.753-.342-.753-.713 0-.603.543-.889 1.368-.889v-.028c0-.123-.067-.3-.425-.3-.237 0-.49.082-.643.172l-.133-.461c.162-.09.481-.21.905-.21.777 0 1.02.457 1.02 1.003v.813zm-.7-.537c-.382 0-.677.09-.677.366 0 .185.124.275.286.275a.4.4 0 0 0 .376-.266.513.513 0 0 0 .014-.123v-.252z" fill="#09285D" fill-rule="nonzero"/>
    </g>
</svg>
