<svg width="24" height="24" viewBox="0 0 24 24" xmlns="http://www.w3.org/2000/svg">
    <g fill="none" fill-rule="evenodd">
        <circle fill="#A769CE" cx="12" cy="12" r="12"/>
        <path d="M3.429 3.429h17.143v17.143H3.429z"/>
        <path stroke="#FFF" stroke-width="1.4" stroke-linecap="round" stroke-linejoin="round" d="M6.108 10.946h11.785M10.31 13.607H7.18c-.592 0-1.072-.48-1.072-1.071V7.714c0-1.183.96-2.143 2.143-2.143h9.643v6.965c0 .591-.48 1.071-1.072 1.071H13.69a.536.536 0 0 0-.53.612l.448 3.138a1.607 1.607 0 1 1-3.214 0l.448-3.138a.536.536 0 0 0-.53-.612zM15.767 5.572v3.214"/>
    </g>
</svg>
