<?xml version="1.0" encoding="UTF-8" standalone="no"?>
<svg
   width="35"
   height="35"
   viewBox="0 0 35 35"
   version="1.1"
   id="svg2700"
   sodipodi:docname="FB.svg"
   inkscape:version="1.2 (dc2aeda, 2022-05-15)"
   xmlns:inkscape="http://www.inkscape.org/namespaces/inkscape"
   xmlns:sodipodi="http://sodipodi.sourceforge.net/DTD/sodipodi-0.dtd"
   xmlns="http://www.w3.org/2000/svg"
   xmlns:svg="http://www.w3.org/2000/svg"
   xmlns:rdf="http://www.w3.org/1999/02/22-rdf-syntax-ns#"
   xmlns:cc="http://creativecommons.org/ns#"
   xmlns:dc="http://purl.org/dc/elements/1.1/">
  <defs
     id="defs2704" />
  <sodipodi:namedview
     id="namedview2702"
     pagecolor="#505050"
     bordercolor="#eeeeee"
     borderopacity="1"
     inkscape:showpageshadow="0"
     inkscape:pageopacity="0"
     inkscape:pagecheckerboard="0"
     inkscape:deskcolor="#505050"
     showgrid="false"
     inkscape:zoom="21.583333"
     inkscape:cx="17.513514"
     inkscape:cy="17.722008"
     inkscape:window-width="1680"
     inkscape:window-height="997"
     inkscape:window-x="0"
     inkscape:window-y="25"
     inkscape:window-maximized="1"
     inkscape:current-layer="svg2700" />
  <title
     id="title2693">FB</title>
  <g
     id="Desktop"
     stroke="none"
     stroke-width="1"
     fill="none"
     fill-rule="evenodd"
     transform="translate(0,-0.295359)">
    <g
       id="Stachema-hl.kategorie-(produkty)"
       transform="translate(-357,-3634)"
       fill="#ffffff">
      <g
         id="footer"
         transform="translate(0,3377.2954)">
        <g
           id="Box1"
           transform="translate(357,47)">
          <path
             d="M 17.5,210 C 27.164983,210 35,217.83502 35,227.5 35,237.16498 27.164983,245 17.5,245 7.8350169,245 0,237.16498 0,227.5 0,217.83502 7.8350169,210 17.5,210 Z m 2.5,13 c -0.156134,0.0463 -0.695167,0 -1.25,0 -1.378253,0 -2.270446,0.83044 -2.5,2.5 v 1.25 H 15 V 228 h 1.25 v 5 h 1.875 v -5 H 20 v -1.25 h -1.875 v -1.25 c 0.120353,-0.48764 0.2579,-0.83913 1.25,-0.625 H 20 Z"
             id="FB" />
        </g>
      </g>
    </g>
  </g>
  <metadata
     id="metadata3227">
    <rdf:RDF>
      <cc:Work
         rdf:about="">
        <dc:title>FB</dc:title>
      </cc:Work>
    </rdf:RDF>
  </metadata>
</svg>
