<svg width="32" height="32" viewBox="0 0 32 32" xmlns="http://www.w3.org/2000/svg">
    <g fill="none" fill-rule="evenodd">
        <circle fill-opacity=".145" fill="#15428F" cx="16" cy="16" r="16"/>
        <path d="M17.417 21.47v-3.18a.53.53 0 0 0-.53-.529h-2.12a.53.53 0 0 0-.529.53v3.179a.53.53 0 0 1-.53.53H10.53a.53.53 0 0 1-.53-.53v-6.123a.53.53 0 0 1 .173-.392l5.298-4.817a.53.53 0 0 1 .713 0l5.299 4.817c.11.1.173.243.173.392v6.123a.53.53 0 0 1-.53.53h-3.18a.53.53 0 0 1-.529-.53z" stroke="#15428F" stroke-width="1.4" stroke-linecap="round" stroke-linejoin="round"/>
    </g>
</svg>
