<svg width="20" height="20" viewBox="0 0 20 20" xmlns="http://www.w3.org/2000/svg">
    <g fill="none" fill-rule="evenodd" opacity=".553">
        <path d="M0 0h20v20H0z"/>
        <path d="M0 0h20v20H0z" opacity=".1"/>
        <path d="M10 1.875A8.125 8.125 0 1 0 18.125 10 8.134 8.134 0 0 0 10 1.875zm-.156 3.75a.938.938 0 1 1 0 1.875.938.938 0 0 1 0-1.875zm.781 8.75H10a.625.625 0 0 1-.625-.625V10a.625.625 0 1 1 0-1.25H10c.345 0 .625.28.625.625v3.75a.625.625 0 0 1 0 1.25z" fill="#09285D" fill-rule="nonzero"/>
    </g>
</svg>
