<?xml version="1.0" encoding="UTF-8" standalone="no"?>
<svg
   width="26"
   height="26"
   viewBox="0 0 26 26"
   version="1.1"
   id="svg9058"
   sodipodi:docname="instagram.svg"
   inkscape:version="1.2 (dc2aeda, 2022-05-15)"
   xmlns:inkscape="http://www.inkscape.org/namespaces/inkscape"
   xmlns:sodipodi="http://sodipodi.sourceforge.net/DTD/sodipodi-0.dtd"
   xmlns="http://www.w3.org/2000/svg"
   xmlns:svg="http://www.w3.org/2000/svg">
  <defs
     id="defs9062">
    <linearGradient
       x1="7.8429761"
       y1="17.875008"
       x2="19"
       y2="7"
       id="linearGradient-1"
       gradientUnits="userSpaceOnUse"
       gradientTransform="matrix(1.4909903,0,0,1.4909903,-6.7411163,-6.3828735)">
      <stop
         stop-color="#FF51D7"
         offset="0%"
         id="stop5155" />
      <stop
         stop-color="#FF4848"
         offset="33.3333%"
         id="stop5157" />
      <stop
         stop-color="#C300FF"
         offset="60.9375%"
         id="stop5159" />
      <stop
         stop-color="#6248FF"
         offset="100%"
         id="stop5161" />
    </linearGradient>
  </defs>
  <sodipodi:namedview
     id="namedview9060"
     pagecolor="#505050"
     bordercolor="#eeeeee"
     borderopacity="1"
     inkscape:showpageshadow="0"
     inkscape:pageopacity="0"
     inkscape:pagecheckerboard="0"
     inkscape:deskcolor="#505050"
     showgrid="false"
     showguides="true"
     inkscape:zoom="22.286288"
     inkscape:cx="17.342502"
     inkscape:cy="13.618239"
     inkscape:window-width="1680"
     inkscape:window-height="997"
     inkscape:window-x="0"
     inkscape:window-y="25"
     inkscape:window-maximized="1"
     inkscape:current-layer="svg9058">
    <sodipodi:guide
       position="3.7237293,12.459166"
       orientation="1,0"
       id="guide13965"
       inkscape:locked="false" />
    <sodipodi:guide
       position="21.589393,12.139048"
       orientation="1,0"
       id="guide13967"
       inkscape:locked="false" />
  </sodipodi:namedview>
  <g
     fill="none"
     fill-rule="evenodd"
     id="g9056">
    <path
       d="M0 0h26v26H0z"
       id="path9052" />
    <path
       d="m 12.924,6.5 c 1.051,0.014 4.907,0.127 7.372,1.074 0.411,0.16 0.72,0.51 0.828,0.937 0.201,0.77 0.465,2.27 0.465,4.828 0,2.557 -0.264,4.058 -0.465,4.829 a 1.368,1.368 0 0 1 -0.828,0.936 c -2.603,1 -6.753,1.07 -7.52,1.075 H 12.528 C 11.761,20.175 7.61,20.104 5.008,19.104 A 1.368,1.368 0 0 1 4.179,18.168 C 3.979,17.396 3.714,15.896 3.714,13.339 3.714,10.782 3.978,9.282 4.179,8.51 4.289,8.083 4.596,7.735 5.007,7.574 7.473,6.627 11.328,6.514 12.379,6.501 Z m -1.647,4.089 v 5.5 l 4.125,-2.75 z"
       fill="#d80027"
       id="path9054"
       style="display:none" />
  </g>
  <path
     d="m 16.65008,4.0540588 c 2.722696,0 4.937618,2.2150281 4.937618,4.9375123 v 8.0168579 c 0,2.722484 -2.214922,4.937512 -4.937618,4.937512 H 8.6332224 c -2.7224842,0 -4.9374065,-2.214922 -4.9374065,-4.937512 V 8.9915712 c 0,-2.7224842 2.2149223,-4.9375123 4.9374065,-4.9375123 z m 0,1.5874545 H 8.6332224 c -1.847163,0 -3.349953,1.5028959 -3.349953,3.3500578 v 8.0168579 c 0,1.847268 1.50279,3.350057 3.349953,3.350057 h 8.0169636 c 1.847268,0 3.350163,-1.502789 3.350163,-3.350057 V 8.9915711 c 0,-1.8471619 -1.503001,-3.3500578 -3.350269,-3.3500578 z m -4.008323,2.7484125 c 2.54215,0 4.610285,2.0681362 4.610285,4.6102852 0,2.542045 -2.068135,4.610074 -4.610285,4.610074 -2.542151,0 -4.6102869,-2.068029 -4.6102869,-4.610074 0,-2.542149 2.0681359,-4.6102852 4.6102869,-4.6102852 z m 0,1.5873504 c -1.666828,0 -3.0228314,1.3560028 -3.0228314,3.0228288 0,1.666722 1.3561094,3.022619 3.0228314,3.022619 1.666722,0 3.02283,-1.355897 3.02283,-3.022619 0,-1.666826 -1.356002,-3.0228289 -3.02283,-3.0228288 z m 4.803638,-2.9334055 c 0.306907,0 0.607465,0.1238218 0.823358,0.3407739 0.216953,0.2158938 0.340774,0.516451 0.340774,0.8233597 0,0.3058494 -0.123827,0.6064079 -0.340774,0.8233599 -0.216951,0.215894 -0.516451,0.340774 -0.823358,0.340774 -0.30585,0 -0.606408,-0.1248851 -0.822302,-0.340774 -0.216953,-0.216952 -0.341832,-0.5174047 -0.341832,-0.8233599 0,-0.3069087 0.124766,-0.6074659 0.341832,-0.8233597 0.216,-0.216952 0.516452,-0.3407739 0.822302,-0.3407739 z"
     id="Combined-Shape"
     fill="url(#linearGradient-1)"
     fill-rule="nonzero"
     style="fill:url(#linearGradient-1);stroke-width:1.49099" />
</svg>
