<?xml version="1.0" encoding="UTF-8"?>
<svg width="35px" height="35px" viewBox="0 0 35 35" version="1.1" xmlns="http://www.w3.org/2000/svg" xmlns:xlink="http://www.w3.org/1999/xlink">
    <title>Isntagram</title>
    <g id="Desktop" stroke="none" stroke-width="1" fill="none" fill-rule="evenodd">
        <g id="Stachema-hl.kategorie-(produkty)" transform="translate(-445.000000, -3634.000000)" fill="#FFFFFF">
            <g id="footer" transform="translate(0.000000, 3377.295359)">
                <g id="Box1" transform="translate(357.000000, 47.000000)">
                    <path d="M105.5,209.704641 C115.164983,209.704641 123,217.539658 123,227.204641 C123,236.869624 115.164983,244.704641 105.5,244.704641 C95.8350169,244.704641 88,236.869624 88,227.204641 C88,217.539658 95.8350169,209.704641 105.5,209.704641 Z M108.688363,221.704641 L103.311495,221.704641 C101.485538,221.704641 100,223.19025 100,225.016208 L100,230.393075 C100,232.219104 101.485538,233.704641 103.311495,233.704641 L108.688363,233.704641 C110.514462,233.704641 112,232.219033 112,230.393075 L112,225.016208 C112,223.19025 110.514462,221.704641 108.688363,221.704641 Z M108.688363,222.76934 C109.927317,222.76934 110.935373,223.777325 110.935373,225.016208 L110.935373,230.393075 C110.935373,231.632029 109.927388,232.639943 108.688434,232.639943 L103.311495,232.639943 C102.072612,232.639943 101.064698,231.632029 101.064698,230.393075 L101.064698,225.016208 C101.064698,223.777325 102.072612,222.76934 103.311495,222.76934 Z M106,224.612687 C104.294992,224.612687 102.907904,225.999776 102.907904,227.704783 C102.907904,229.40972 104.294992,230.796738 106,230.796738 C107.705008,230.796738 109.092096,229.40972 109.092096,227.704783 C109.092096,225.999776 107.705008,224.612687 106,224.612687 Z M106,225.677314 C107.117933,225.677314 108.027398,226.586779 108.027398,227.704712 C108.027398,228.822574 107.117862,229.731969 106,229.731969 C104.882138,229.731969 103.972602,228.822574 103.972602,227.704712 C103.972602,226.586779 104.882067,225.677314 106,225.677314 Z M109.221777,223.709894 C109.016645,223.709894 108.815133,223.79294 108.670263,223.938449 C108.524683,224.083248 108.440998,224.284831 108.440998,224.490673 C108.440998,224.695875 108.524754,224.897387 108.670263,225.042896 C108.815062,225.187695 109.016645,225.271451 109.221777,225.271451 C109.427618,225.271451 109.628491,225.187695 109.774,225.042896 C109.919509,224.897387 110.002555,224.695804 110.002555,224.490673 C110.002555,224.284831 109.919509,224.083248 109.774,223.938449 C109.629201,223.79294 109.427618,223.709894 109.221777,223.709894 Z" id="Isntagram"></path>
                </g>
            </g>
        </g>
    </g>
</svg>