<?xml version="1.0" encoding="UTF-8"?>
<svg width="32px" height="32px" viewBox="0 0 32 32" version="1.1" xmlns="http://www.w3.org/2000/svg" xmlns:xlink="http://www.w3.org/1999/xlink">
    <title>Link</title>
    <g id="Desktop" stroke="none" stroke-width="1" fill="none" fill-rule="evenodd">
        <g id="Link">
            <rect id="Rectangle" x="0" y="0" width="32" height="32"></rect>
            <path d="M15.2928938,8.9289325 L17.7677688,6.4540575 C19.1569898,5.06354219 21.1826722,4.52008829 23.0813466,5.02852075 C24.980021,5.53695321 26.4630468,7.01997902 26.9714792,8.91865342 C27.4799117,10.8173278 26.9364578,12.8430102 25.5459425,14.2322313 L22.0104088,17.7677663 C20.9789587,18.7992165 19.580012,19.3786792 18.1213213,19.3786792 C16.6626305,19.3786792 15.2636838,18.7992165 14.2322338,17.7677663" id="Path" stroke="#09285D" stroke-width="2" stroke-linecap="round" stroke-linejoin="round"></path>
            <path d="M16.7071062,23.0710675 L14.2322312,25.5459425 C12.8430102,26.9364578 10.8173278,27.4799117 8.91865342,26.9714792 C7.01997902,26.4630468 5.53695321,24.980021 5.02852075,23.0813466 C4.52008829,21.1826722 5.06354219,19.1569898 6.4540575,17.7677688 L9.98959125,14.2322338 C11.0210413,13.2007835 12.419988,12.6213208 13.8786787,12.6213208 C15.3373695,12.6213208 16.7363162,13.2007835 17.7677662,14.2322338" id="Path" stroke="#09285D" stroke-width="2" stroke-linecap="round" stroke-linejoin="round"></path>
        </g>
    </g>
</svg>