<svg width="22" height="23" viewBox="0 0 22 23" xmlns="http://www.w3.org/2000/svg">
    <g fill="none" fill-rule="evenodd">
        <path d="M0 .295h22v22H0z"/>
        <path d="M7.947 11.022a7.249 7.249 0 0 0 3.356 3.34.681.681 0 0 0 .673-.05l2.152-1.435a.687.687 0 0 1 .652-.06l4.025 1.725c.28.12.449.41.412.713a4.126 4.126 0 0 1-4.092 3.603c-6.455 0-11.688-5.233-11.688-11.688A4.126 4.126 0 0 1 7.04 3.078a.685.685 0 0 1 .713.412L9.48 7.52c.09.212.07.455-.057.647l-1.43 2.185a.681.681 0 0 0-.046.67z" stroke="#FFF" stroke-width="2" stroke-linecap="round" stroke-linejoin="round"/>
    </g>
</svg>
