<svg width="24" height="24" viewBox="0 0 24 24" xmlns="http://www.w3.org/2000/svg">
    <g fill="none" fill-rule="evenodd">
        <circle fill="#FFEEE6" cx="12" cy="12" r="12"/>
        <g transform="rotate(180 9.957 9.957)" fill-rule="nonzero">
            <circle fill="#FFF" cx="8" cy="8" r="8"/>
            <path d="M14.103 6.277a6.106 6.106 0 0 1 0 3.307l-.618.375L7.93 7.93l5.628-1.991.544.337z" fill="#FEFE33"/>
            <path d="M9.584 1.759a6.106 6.106 0 0 1 2.865 1.654l.016.635L7.93 7.931l1.1-5.866.553-.306z" fill="#FB9902"/>
            <path d="M12.449 3.413a6.106 6.106 0 0 1 1.654 2.864L7.93 7.931l4.518-4.518z" fill="#FABC02"/>
            <path d="M3.413 3.413a6.106 6.106 0 0 1 2.864-1.654l.662.408.992 5.764L3.4 4.098l.012-.685z" fill="#FE2712"/>
            <path d="M6.277 1.759a6.106 6.106 0 0 1 3.307 0L7.931 7.93 6.277 1.759z" fill="#FD5308"/>
            <path d="M1.759 9.584a6.106 6.106 0 0 1 0-3.307l.71-.477 5.462 2.13-5.473 2.03-.7-.376z" fill="#8601AF"/>
            <path d="M1.759 6.277a6.106 6.106 0 0 1 1.654-2.864L7.93 7.93 1.759 6.277z" fill="#A7194B"/>
            <path d="M6.277 14.103a6.106 6.106 0 0 1-2.864-1.654l.053-.72L7.93 7.93l-.996 5.87-.658.302z" fill="#0247FE"/>
            <path d="M3.413 12.449a6.106 6.106 0 0 1-1.654-2.865L7.93 7.931l-4.518 4.518z" fill="#3D01A4"/>
            <path d="M12.449 12.449a6.106 6.106 0 0 1-2.865 1.654l-.62-.386L7.932 7.93l4.5 3.863.018.655z" fill="#66B032"/>
            <path d="M9.584 14.103a6.106 6.106 0 0 1-3.307 0L7.931 7.93l1.653 6.172z" fill="#0391CE"/>
            <path d="M14.103 9.584a6.106 6.106 0 0 1-1.654 2.865L7.93 7.93l6.172 1.653z" fill="#D0EA2B"/>
            <circle fill="#FFF" cx="8" cy="8" r="3.2"/>
        </g>
    </g>
</svg>
