<svg width="26" height="26" viewBox="0 0 26 26" xmlns="http://www.w3.org/2000/svg">
    <g fill="none" fill-rule="evenodd">
        <path d="M0 0h26v26H0z"/>
        <path d="M12.924 6.5c1.051.014 4.907.127 7.372 1.074.411.16.72.51.828.937.201.77.465 2.27.465 4.828 0 2.557-.264 4.058-.465 4.829a1.368 1.368 0 0 1-.828.936c-2.603 1-6.753 1.07-7.52 1.075h-.248c-.767-.004-4.918-.075-7.52-1.075a1.368 1.368 0 0 1-.829-.936c-.2-.772-.465-2.272-.465-4.829s.264-4.057.465-4.829c.11-.427.417-.775.828-.936 2.466-.947 6.321-1.06 7.372-1.073zm-1.647 4.089v5.5l4.125-2.75-4.125-2.75z" fill="#D80027"/>
    </g>
</svg>
