<svg width="35" height="35" viewBox="0 0 35 35" xmlns="http://www.w3.org/2000/svg">
    <path d="M17.5 0C27.165 0 35 7.835 35 17.5S27.165 35 17.5 35 0 27.165 0 17.5 7.835 0 17.5 0zm.222 13.001h-.444c-.797.011-3.562.099-5.338.781a.995.995 0 0 0-.602.681c-.146.56-.338 1.652-.338 3.512s.192 2.95.338 3.511c.08.311.304.565.602.681 1.839.707 4.74.775 5.416.782h.288c.676-.007 3.577-.075 5.416-.782a.995.995 0 0 0 .602-.68c.146-.561.338-1.653.338-3.512 0-1.86-.192-2.951-.338-3.512a.995.995 0 0 0-.602-.68c-1.776-.683-4.54-.77-5.338-.782zM16.5 15.975l3 2-3 2v-4z" fill="#FFF" fill-rule="evenodd"/>
</svg>
